<?xml version="1.0" encoding="UTF-8" standalone="no"?>
<!-- Created with Inkscape (http://www.inkscape.org/) -->

<svg
   xmlns:dc="http://purl.org/dc/elements/1.1/"
   xmlns:cc="http://creativecommons.org/ns#"
   xmlns:rdf="http://www.w3.org/1999/02/22-rdf-syntax-ns#"
   xmlns:svg="http://www.w3.org/2000/svg"
   xmlns="http://www.w3.org/2000/svg"
   xmlns:sodipodi="http://sodipodi.sourceforge.net/DTD/sodipodi-0.dtd"
   xmlns:inkscape="http://www.inkscape.org/namespaces/inkscape"
   width="640"
   height="480"
   viewBox="0 0 640.00001 480.00001"
   id="svg2"
   version="1.1"
   inkscape:version="0.91 r13725"
   inkscape:export-filename="/home/stepo/tmp/face/face_left.png"
   inkscape:export-xdpi="90"
   inkscape:export-ydpi="90"
   sodipodi:docname="all.svg">
  <defs
     id="defs4" />
  <sodipodi:namedview
     id="base"
     pagecolor="#ffffff"
     bordercolor="#666666"
     borderopacity="1.0"
     inkscape:pageopacity="0.0"
     inkscape:pageshadow="2"
     inkscape:zoom="0.98994949"
     inkscape:cx="200.50852"
     inkscape:cy="60.779435"
     inkscape:document-units="px"
     inkscape:current-layer="layer2"
     showgrid="false"
     units="px"
     inkscape:window-width="1920"
     inkscape:window-height="1016"
     inkscape:window-x="0"
     inkscape:window-y="32"
     inkscape:window-maximized="1" />
  <metadata
     id="metadata7">
    <rdf:RDF>
      <cc:Work
         rdf:about="">
        <dc:format>image/svg+xml</dc:format>
        <dc:type
           rdf:resource="http://purl.org/dc/dcmitype/StillImage" />
        <dc:title></dc:title>
      </cc:Work>
    </rdf:RDF>
  </metadata>
  <g
     inkscape:groupmode="layer"
     id="layer2"
     inkscape:label="head_top"
     style="display:inline">
    <g
       id="layer1-5"
       transform="matrix(3.645051,0,0,3.645051,-633.88428,-1508.2742)">
      <path
         style="fill:#ffffff;fill-opacity:0.75294118;fill-rule:evenodd;stroke:#000000;stroke-width:1px;stroke-linecap:round;stroke-linejoin:miter;stroke-opacity:1"
         d="m 256.82454,464.36177 c 3.88133,-1.68665 3.14225,-2.50742 4.18967,-4.60226 1.04742,-2.09483 1.96024,-1.90294 2.85803,-0.25699 0.89779,1.64594 0.87964,3.68632 3.72263,5.033"
         id="path6687"
         inkscape:connector-curvature="0" />
      <path
         style="fill:#ffffff;fill-opacity:0.75294118;fill-rule:evenodd;stroke:#000000;stroke-width:1px;stroke-linecap:butt;stroke-linejoin:miter;stroke-opacity:1"
         d="m 275.73354,478.10362 c 1.27222,-2.30052 4.53012,8.30639 3.29189,9.05269 -0.44889,1.27185 -2.69336,0.59852 -2.69336,0.59852"
         id="path6691-9"
         inkscape:connector-curvature="0" />
      <path
         style="fill:#ffffff;fill-opacity:0.75294118;fill-rule:evenodd;stroke:#000000;stroke-width:1px;stroke-linecap:butt;stroke-linejoin:miter;stroke-opacity:1"
         d="m 248.61297,477.99105 c -1.27221,-2.30052 -4.53011,8.30639 -3.29188,9.05269 0.44889,1.27185 2.69336,0.59852 2.69336,0.59852"
         id="path6691"
         inkscape:connector-curvature="0" />
      <path
         style="fill:#ffffff;fill-opacity:0.75294118;fill-rule:evenodd;stroke:#000000;stroke-width:1px;stroke-linecap:round;stroke-linejoin:miter;stroke-opacity:1"
         d="m 264.06799,463.90032 c 0.86071,0.0796 1.69631,0.21419 2.47617,0.40349 1.55972,0.37859 2.8965,0.9762 3.76534,1.79156 5.02025,4.71123 5.3697,8.7898 5.83562,19.45205 0.70264,16.07958 -14.06534,17.05795 -14.06534,17.05795 0,0 -13.31717,-0.59852 -13.76607,-15.11274 -0.44889,-14.51423 2.12597,-17.00926 4.7882,-20.6491 0.69247,-0.94675 1.89696,-1.67072 3.3685,-2.17318 1.47154,-0.50245 2.36367,-0.73048 4.12429,-0.79116"
         id="path6685"
         inkscape:connector-curvature="0" />
    </g>
  </g>
  <g
     inkscape:label="head_side"
     inkscape:groupmode="layer"
     id="layer1"
     transform="translate(0,-572.36216)"
     style="display:none">
    <g
       id="layer1-7"
       transform="matrix(3.6229012,0,0,3.6229012,-766.82411,-910.73914)">
      <g
         id="g6621"
         transform="matrix(0.16247405,0,0,0.16247405,266.16866,452.00359)"
         style="fill:#ffffff;fill-opacity:0.75294118;stroke:#000000;stroke-width:6.15482903;stroke-miterlimit:4;stroke-dasharray:none;stroke-opacity:1">
        <title
           id="title6623">Layer 1</title>
        <path
           id="path2396"
           d="M 4.34099,280.60599 C 12.7912,250.571 31.0618,224.439 51.818199,183.12601 58.6002,169.627 62.845001,146.85899 61.9197,131.608 c 0,0 -8.869202,-7.652 -11.616802,-11.36399 C 45.200401,113.35 39.2262,103.759 36.665901,95.747705 33.7421,86.598901 32.3484,73.500703 33.130401,63.9279 c 0.730198,-8.9408 3.2561,-21.226898 8.0812,-28.789299 5.259697,-8.243799 16.1026,-16.6448 24.748688,-21.2132 8.742111,-4.61918 21.961311,-7.83114 31.819809,-8.58633 9.576902,-0.7336 22.521902,1.12903 31.819912,3.535531 10.65199,2.7568 24.85299,8.1718 33.33499,15.152299 20.46299,17.880301 20.248,41.193003 21.718,66.165003 1.46201,5.930496 6.492,12.750096 10.102,17.678096 1.584,2.162 4.864,4.167 6.06099,6.56599 0.75602,1.51602 1.65801,3.99002 1.01001,5.555 -0.917,2.21401 -4.477,3.37301 -6.56601,4.54602 -1.30099,0.73098 -3.81498,0.71898 -4.54599,2.01999 -1.72,3.065 2.851,8.036 0.758,10.86001 -1.09801,1.48 -5.304,1.767 -5.304,1.767 0,0 5.19999,6.59298 3.031,6.56599 -1.21,-0.014 -4.882,6.119 -4.041,8.081 0,0 2.487,5.902 2.52601,8.587 0.042,2.976 -0.47201,7.441 -2.52601,9.59601 -2.082,2.18599 -6.682,2.243 -9.596,3.03099 -4.64901,1.256 -12.14701,0.51801 -17.17299,1.767 -3.33101,0.828 -7.70401,2.461 -10.60601,4.294 -2.08599,1.31701 -5.046,3.307 -6.061,5.555 -3.18201,7.044 0.41299,18.085 -0.50501,25.759 -0.498,4.162 -3.543,9.478 -3.03099,13.63701 0.621,5.045 4.649,10.99799 7.57599,15.153 2.90201,4.11699 8.524,8.14699 11.61699,12.12199 4.39002,5.63999 8.51901,14.35401 12.62701,20.20301 1.55101,2.207 5.556,7.07098 5.556,7.07098 l -171.221001,0 z"
           stroke-miterlimit="4"
           style="fill:#ffffff;fill-opacity:0.75294118;fill-rule:evenodd;stroke:#000000;stroke-width:6.15482903;stroke-miterlimit:4;stroke-dasharray:none;stroke-opacity:1"
           inkscape:connector-curvature="0" />
      </g>
    </g>
  </g>
  <g
     inkscape:groupmode="layer"
     id="layer5"
     inkscape:label="rotate_up"
     style="display:none">
    <g
       style="display:inline"
       id="layer1-3"
       transform="matrix(3.0344294,0,0,3.0344294,-504.5936,-1288.157)">
      <path
         id="path6710-8"
         d="m 285.10241,499.61597 5.58084,-3.2221 c 2.48706,4.30771 1.00549,9.83708 -3.30223,12.32414 2.55772,4.43008 1.16637,2.0202 3.86652,6.697 8.00063,-4.61916 10.7519,-14.88703 6.13273,-22.88767 l 5.58084,-3.2221 -16.6624,-8.23867 z"
         style="fill:#ffffff;fill-opacity:0.75294118;stroke:#000000;stroke-opacity:1"
         inkscape:connector-curvature="0" />
    </g>
  </g>
  <g
     inkscape:groupmode="layer"
     id="layer6"
     inkscape:label="rotate_down"
     style="display:none">
    <g
       style="display:inline"
       id="layer1-6"
       transform="matrix(3.0537168,0,0,3.0537168,-675.45177,-1266.4994)">
      <path
         id="path6710"
         d="m 339.25612,486.6423 5.58084,3.2221 c 2.48706,-4.30771 1.00549,-9.83707 -3.30223,-12.32413 2.55772,-4.43009 1.16637,-2.02021 3.86652,-6.69701 8.00063,4.61917 10.7519,14.88703 6.13273,22.88767 l 5.58084,3.2221 -16.6624,8.23868 z"
         style="fill:#ffffff;fill-opacity:0.75294118;stroke:#000000;stroke-opacity:1"
         inkscape:connector-curvature="0" />
    </g>
  </g>
  <g
     inkscape:groupmode="layer"
     id="layer7"
     inkscape:label="rotate_left"
     style="display:inline">
    <g
       id="layer1-62"
       transform="matrix(2.4560132,0,0,2.4560132,-296.29774,-971.57757)">
      <path
         id="path6710-8-2"
         d="m 285.10241,499.61597 5.58084,-3.2221 c 2.48706,4.30771 1.00549,9.83708 -3.30223,12.32414 2.55772,4.43008 1.16637,2.0202 3.86652,6.697 8.00063,-4.61916 10.7519,-14.88703 6.13273,-22.88767 l 5.58084,-3.2221 -16.6624,-8.23867 z"
         style="fill:#ffffff;fill-opacity:0.75294118;stroke:#000000;stroke-opacity:1"
         inkscape:connector-curvature="0" />
    </g>
    <g
       id="layer1-62-5"
       transform="matrix(-2.4560132,0,0,-2.4560132,935.10324,1477.3772)">
      <path
         id="path6710-8-2-5"
         d="m 285.10241,499.61597 5.58084,-3.2221 c 2.48706,4.30771 1.00549,9.83708 -3.30223,12.32414 2.55772,4.43008 1.16637,2.0202 3.86652,6.697 8.00063,-4.61916 10.7519,-14.88703 6.13273,-22.88767 l 5.58084,-3.2221 -16.6624,-8.23867 z"
         style="fill:#ffffff;fill-opacity:0.75294118;stroke:#000000;stroke-opacity:1"
         inkscape:connector-curvature="0" />
    </g>
  </g>
  <g
     inkscape:groupmode="layer"
     id="layer8"
     inkscape:label="rotate_right"
     style="display:none">
    <path
       id="path6710-8-2-6"
       d="m 407.37194,248.44853 13.70662,7.91352 c 6.10825,-10.57979 2.46949,-24.15999 -8.11032,-30.26825 6.28179,-10.88033 2.86462,-4.96163 9.49622,-16.44792 19.64965,11.34472 26.40681,36.56275 15.06207,56.21242 l 13.70661,7.91352 -40.92307,20.23429 z"
       style="display:inline;fill:#ffffff;fill-opacity:0.75294118;stroke:#000000;stroke-width:2.4560132;stroke-opacity:1"
       inkscape:connector-curvature="0" />
    <g
       style="display:inline"
       id="layer1-62-5-4"
       transform="matrix(-2.4560132,0,0,2.4560132,938.55766,-969.79771)">
      <path
         id="path6710-8-2-5-8"
         d="m 285.10241,499.61597 5.58084,-3.2221 c 2.48706,4.30771 1.00549,9.83708 -3.30223,12.32414 2.55772,4.43008 1.16637,2.0202 3.86652,6.697 8.00063,-4.61916 10.7519,-14.88703 6.13273,-22.88767 l 5.58084,-3.2221 -16.6624,-8.23867 z"
         style="fill:#ffffff;fill-opacity:0.75294118;stroke:#000000;stroke-opacity:1"
         inkscape:connector-curvature="0" />
    </g>
  </g>
  <g
     inkscape:groupmode="layer"
     id="layer9"
     inkscape:label="no_face"
     style="display:none">
    <g
       style="font-style:normal;font-variant:normal;font-weight:bold;font-stretch:normal;font-size:80px;line-height:125%;font-family:sans-serif;-inkscape-font-specification:'sans-serif Bold';letter-spacing:0px;word-spacing:0px;fill:#ff0000;fill-opacity:0.50196078;stroke:#000000;stroke-width:3.5999999;stroke-linecap:butt;stroke-linejoin:miter;stroke-miterlimit:4;stroke-dasharray:none;stroke-opacity:1"
       id="text4597"
       transform="translate(-15.714285,-55)">
      <path
         d="m 384.84375,278.80582 20.23437,29.76562 -15.66406,0 -13.63281,-19.92187 -13.51563,19.92187 -15.74218,0 20.23437,-29.76562 -19.45312,-28.55469 15.70312,0 12.77344,18.78906 12.73437,-18.78906 15.78125,0 -19.45312,28.55469 z"
         style="fill:#ff0000;fill-opacity:0.50196078;stroke:#000000;stroke-width:3.5999999;stroke-miterlimit:4;stroke-dasharray:none"
         id="path4602"
         inkscape:connector-curvature="0" />
    </g>
  </g>
  <g
     inkscape:groupmode="layer"
     id="layer4"
     inkscape:label="move_forward"
     style="display:none">
    <g
       id="layer1-8"
       transform="matrix(3.0037235,0,0,3.0037235,-499.06292,-1243.7183)">
      <g
         transform="matrix(0.05157029,0,0,0.05157029,266.13933,472.80497)"
         id="layer1-3-2"
         style="fill:#ffffff;fill-opacity:0.75294118;stroke:#000000;stroke-width:19.39101028;stroke-miterlimit:4;stroke-dasharray:none;stroke-opacity:1">
        <path
           id="rect3007-1-4"
           d="m 886.21785,318.23637 -300,-200 0,107.75 -212,0 0,184.5 212,0 0,107.75 300,-200 z"
           style="fill:#ffffff;fill-opacity:0.75294118;stroke:#000000;stroke-width:19.39101028;stroke-miterlimit:4;stroke-dasharray:none;stroke-opacity:1"
           inkscape:connector-curvature="0" />
      </g>
    </g>
  </g>
  <g
     inkscape:groupmode="layer"
     id="layer3"
     inkscape:label="move_back"
     style="display:none">
    <g
       id="layer1-4"
       transform="matrix(3.1064785,0,0,3.1064785,-546.19886,-1293.1891)">
      <g
         transform="matrix(-0.05157029,0,0,0.05157029,331.54175,472.80497)"
         id="layer1-3-3"
         style="fill:#ffffff;fill-opacity:0.75294118;stroke:#000000;stroke-width:19.39101028;stroke-miterlimit:4;stroke-dasharray:none;stroke-opacity:1">
        <path
           id="rect3007-1"
           d="m 886.21785,318.23637 -300,-200 0,107.75 -212,0 0,184.5 212,0 0,107.75 300,-200 z"
           style="fill:#ffffff;fill-opacity:0.75294118;stroke:#000000;stroke-width:19.39101028;stroke-miterlimit:4;stroke-dasharray:none;stroke-opacity:1"
           inkscape:connector-curvature="0" />
      </g>
    </g>
  </g>
</svg>
