<?xml version="1.0" encoding="UTF-8" standalone="no"?>
<svg
   xmlns:dc="http://purl.org/dc/elements/1.1/"
   xmlns:cc="http://creativecommons.org/ns#"
   xmlns:rdf="http://www.w3.org/1999/02/22-rdf-syntax-ns#"
   xmlns:svg="http://www.w3.org/2000/svg"
   xmlns="http://www.w3.org/2000/svg"
   version="1.1"
   id="svg6867"
   viewBox="0 0 33.28654 45.750866"
   height="12.911911mm"
   width="9.3942013mm">
  <defs
     id="defs6869" />
  <metadata
     id="metadata6872">
    <rdf:RDF>
      <cc:Work
         rdf:about="">
        <dc:format>image/svg+xml</dc:format>
        <dc:type
           rdf:resource="http://purl.org/dc/dcmitype/StillImage" />
        <dc:title></dc:title>
      </cc:Work>
    </rdf:RDF>
  </metadata>
  <g
     transform="translate(-266.21387,-452.34392)"
     id="layer1">
    <g
       style="fill:#ffffff;fill-opacity:0.75294118;stroke:#000000;stroke-width:6.15482903;stroke-miterlimit:4;stroke-dasharray:none;stroke-opacity:1"
       transform="matrix(0.16247405,0,0,0.16247405,266.16866,452.00359)"
       id="g6621">
      <title
         id="title6623">Layer 1</title>
      <path
         style="fill:#ffffff;fill-opacity:0.75294118;fill-rule:evenodd;stroke:#000000;stroke-width:6.15482903;stroke-miterlimit:4;stroke-dasharray:none;stroke-opacity:1"
         stroke-miterlimit="4"
         d="M 4.34099,280.60599 C 12.7912,250.571 31.0618,224.439 51.818199,183.12601 58.6002,169.627 62.845001,146.85899 61.9197,131.608 c 0,0 -8.869202,-7.652 -11.616802,-11.36399 C 45.200401,113.35 39.2262,103.759 36.665901,95.747705 33.7421,86.598901 32.3484,73.500703 33.130401,63.9279 c 0.730198,-8.9408 3.2561,-21.226898 8.0812,-28.789299 5.259697,-8.243799 16.1026,-16.6448 24.748688,-21.2132 8.742111,-4.61918 21.961311,-7.83114 31.819809,-8.58633 9.576902,-0.7336 22.521902,1.12903 31.819912,3.535531 10.65199,2.7568 24.85299,8.1718 33.33499,15.152299 20.46299,17.880301 20.248,41.193003 21.718,66.165003 1.46201,5.930496 6.492,12.750096 10.102,17.678096 1.584,2.162 4.864,4.167 6.06099,6.56599 0.75602,1.51602 1.65801,3.99002 1.01001,5.555 -0.917,2.21401 -4.477,3.37301 -6.56601,4.54602 -1.30099,0.73098 -3.81498,0.71898 -4.54599,2.01999 -1.72,3.065 2.851,8.036 0.758,10.86001 -1.09801,1.48 -5.304,1.767 -5.304,1.767 0,0 5.19999,6.59298 3.031,6.56599 -1.21,-0.014 -4.882,6.119 -4.041,8.081 0,0 2.487,5.902 2.52601,8.587 0.042,2.976 -0.47201,7.441 -2.52601,9.59601 -2.082,2.18599 -6.682,2.243 -9.596,3.03099 -4.64901,1.256 -12.14701,0.51801 -17.17299,1.767 -3.33101,0.828 -7.70401,2.461 -10.60601,4.294 -2.08599,1.31701 -5.046,3.307 -6.061,5.555 -3.18201,7.044 0.41299,18.085 -0.50501,25.759 -0.498,4.162 -3.543,9.478 -3.03099,13.63701 0.621,5.045 4.649,10.99799 7.57599,15.153 2.90201,4.11699 8.524,8.14699 11.61699,12.12199 4.39002,5.63999 8.51901,14.35401 12.62701,20.20301 1.55101,2.207 5.556,7.07098 5.556,7.07098 l -171.221001,0 z"
         id="path2396" />
    </g>
  </g>
</svg>
